<?xml version="1.0" encoding="UTF-8"?>
<svg version="1.1" xmlns="http://www.w3.org/2000/svg" width="373" height="380">
<path d="M0 0 C123.09 0 246.18 0 373 0 C373 125.4 373 250.8 373 380 C249.91 380 126.82 380 0 380 C0 254.6 0 129.2 0 0 Z " fill="#FEFEFE" transform="translate(0,0)"/>
<path d="M0 0 C29.04 0 58.08 0 88 0 C88 28.05 88 56.1 88 85 C58.96 85 29.92 85 0 85 C0 56.95 0 28.9 0 0 Z " fill="#042433" transform="translate(138,266)"/>
<path d="M0 0 C8.35079492 6.61104598 14.44399851 17.13317057 16.09375 27.66015625 C16.97842595 40.48795745 14.9509095 50.41168733 7.09375 60.66015625 C6.330625 61.71203125 5.5675 62.76390625 4.78125 63.84765625 C-3.97212634 73.00816638 -15.18082102 77.67119785 -27.71875 77.97265625 C-38.50680355 77.77671938 -46.36187627 75.21084278 -54.90625 68.66015625 C-56.4840625 67.51546875 -56.4840625 67.51546875 -58.09375 66.34765625 C-63.59732618 61.08868345 -67.27646613 54.76057269 -69.90625 47.66015625 C-70.298125 46.62890625 -70.69 45.59765625 -71.09375 44.53515625 C-73.58420235 32.65761429 -71.95871893 21.39265604 -65.78125 10.97265625 C-58.99421086 0.99841215 -49.22249483 -6.53313431 -37.2265625 -9.05859375 C-23.07099989 -10.77441952 -11.61521187 -8.16397064 0 0 Z " fill="#082736" transform="translate(209.90625,157.33984375)"/>
<path d="M0 0 C4.95 0 9.9 0 15 0 C15 42.24 15 84.48 15 128 C-12.39 128 -39.78 128 -68 128 C-68 123.05 -68 118.1 -68 113 C-45.56 113 -23.12 113 0 113 C0 87.59 0 62.18 0 36 C-22.44 36 -44.88 36 -68 36 C-68 30.06 -68 24.12 -68 18 C-45.56 18 -23.12 18 0 18 C0 12.06 0 6.12 0 0 Z " fill="#042433" transform="translate(316,211)"/>
<path d="M0 0 C4.95 0 9.9 0 15 0 C15 5.94 15 11.88 15 18 C36.45 18 57.9 18 80 18 C80 23.94 80 29.88 80 36 C58.55 36 37.1 36 15 36 C15 61.41 15 86.82 15 113 C36.45 113 57.9 113 80 113 C80 117.95 80 122.9 80 128 C53.6 128 27.2 128 0 128 C0 85.76 0 43.52 0 0 Z " fill="#042433" transform="translate(34,211)"/>
<path d="M0 0 C0.66 0 1.32 0 2 0 C3.48950195 2.0534668 3.48950195 2.0534668 5.23828125 4.94921875 C5.88692139 6.01438721 6.53556152 7.07955566 7.20385742 8.17700195 C7.90679408 9.34713445 8.60967355 10.5173013 9.3125 11.6875 C10.03738263 12.882231 10.7630573 14.0764818 11.48950195 15.27026367 C12.9636107 17.6937693 14.43458168 20.11913491 15.90332031 22.54589844 C18.79783047 27.32221894 21.74107098 32.06808742 24.6875 36.8125 C25.73577201 38.50514955 26.78394929 40.19785777 27.83203125 41.890625 C30.03446897 45.44476162 32.24097593 48.99634264 34.44921875 52.546875 C35.30930542 53.93169067 35.30930542 53.93169067 36.18676758 55.34448242 C37.26466323 57.07987105 38.34380188 58.81448865 39.42456055 60.5480957 C43.41024334 66.96850378 47.187711 73.46464743 51 80 C18 80 -15 80 -49 80 C-39.92829235 64.12451161 -39.92829235 64.12451161 -35.5 57.25 C-30.61354446 49.58637316 -25.81893416 41.86995999 -21.0625 34.125 C-20.39009277 33.0323584 -19.71768555 31.9397168 -19.02490234 30.81396484 C-15.72099628 25.44263261 -12.42954202 20.06429335 -9.16015625 14.671875 C-8.56259521 13.69202637 -7.96503418 12.71217773 -7.34936523 11.70263672 C-6.22184126 9.85370813 -5.10000997 8.00129282 -3.98461914 6.14501953 C-3.2381311 4.92468018 -3.2381311 4.92468018 -2.4765625 3.6796875 C-2.04424316 2.96538574 -1.61192383 2.25108398 -1.16650391 1.51513672 C-0.78155762 1.0151416 -0.39661133 0.51514648 0 0 Z " fill="#062635" transform="translate(181,34)"/>
<path d="M0 0 C27.39 0 54.78 0 83 0 C83 40.59 83 81.18 83 123 C78.05 123 73.1 123 68 123 C68 118.38 68 113.76 68 109 C45.56 109 23.12 109 0 109 C0 103.72 0 98.44 0 93 C22.44 93 44.88 93 68 93 C68 67.26 68 41.52 68 15 C45.56 15 23.12 15 0 15 C0 10.05 0 5.1 0 0 Z " fill="#042433" transform="translate(248,43)"/>
<path d="M0 0 C26.4 0 52.8 0 80 0 C80 4.95 80 9.9 80 15 C58.55 15 37.1 15 15 15 C15 40.74 15 66.48 15 93 C36.45 93 57.9 93 80 93 C80 98.28 80 103.56 80 109 C58.55 109 37.1 109 15 109 C15 113.62 15 118.24 15 123 C10.05 123 5.1 123 0 123 C0 82.41 0 41.82 0 0 Z " fill="#042433" transform="translate(34,43)"/>
<path d="M0 0 C19.14 0 38.28 0 58 0 C58 18.15 58 36.3 58 55 C38.86 55 19.72 55 0 55 C0 36.85 0 18.7 0 0 Z " fill="#FFFFFF" transform="translate(153,281)"/>
<path d="M0 0 C7.50326126 4.74553277 13.25390255 10.80467639 16.09375 19.32421875 C16.95888538 28.13624059 16.23757335 34.98879147 11.09375 42.32421875 C5.57671144 48.97231305 -0.78983163 53.73116516 -9.60546875 54.5859375 C-18.03235413 54.89884362 -24.67359998 53.65701404 -31.38671875 48.37109375 C-38.51744568 41.71729961 -42.0095058 35.68010139 -42.46875 25.88671875 C-42.15677177 17.25196632 -38.95939608 11.27208046 -33.21875 4.94921875 C-24.11828642 -3.45382612 -11.18580317 -5.77527881 0 0 Z " fill="#FCFCFC" transform="translate(194.90625,165.67578125)"/>
<path d="M0 0 C19.14 0 38.28 0 58 0 C58 4.95 58 9.9 58 15 C38.86 15 19.72 15 0 15 C0 10.05 0 5.1 0 0 Z " fill="#030303" transform="translate(243,184)"/>
<path d="M0 0 C19.14 0 38.28 0 58 0 C58 4.95 58 9.9 58 15 C38.86 15 19.72 15 0 15 C0 10.05 0 5.1 0 0 Z " fill="#030303" transform="translate(66,184)"/>
<path d="M0 0 C3.74474502 1.24824834 4.12035936 2.37363349 6.109375 5.70703125 C6.69976562 6.68736328 7.29015625 7.66769531 7.8984375 8.67773438 C8.50945312 9.71220703 9.12046875 10.74667969 9.75 11.8125 C10.34554687 12.80443359 10.94109375 13.79636719 11.5546875 14.81835938 C15.76242288 21.84491315 19.87293475 28.92503101 24 36 C8.82 36 -6.36 36 -22 36 C-16.9831907 27.22058373 -11.96655818 18.60637674 -6.5 10.125 C-5.55253906 8.64580078 -5.55253906 8.64580078 -4.5859375 7.13671875 C-3.0603261 4.75584035 -1.53169441 2.37696759 0 0 Z " fill="#FBFCFC" transform="translate(181,63)"/>
</svg>
